<svg width="2163" height="1536" xmlns="http://www.w3.org/2000/svg" xmlns:xlink="http://www.w3.org/1999/xlink" xml:space="preserve" overflow="hidden"><g transform="translate(-527 -178)"><g><path d="M2443.5 389C2434.15 316.109 2493.35 269.13 2564.5 267.5 2635.85 268.457 2680.71 322.05 2685.5 389 2680.03 461.463 2630.75 513.689 2564.5 510.5 2488 505.183 2457.48 462.81 2443.5 389Z" fill="#D65DB1" fill-rule="evenodd" fill-opacity="1"/><path d="M2443.5 389C2457.17 323.525 2500.2 262.278 2564.5 267.5 2623.62 266.315 2673.82 332.938 2685.5 389 2684.74 448.825 2630.05 512.277 2564.5 510.5 2509.99 517.423 2456.9 459.339 2443.5 389Z" stroke="#000000" stroke-width="4.58333" stroke-linecap="butt" stroke-linejoin="round" stroke-miterlimit="10" stroke-opacity="1" fill="none" fill-rule="evenodd"/><text fill="#000000" fill-opacity="1" font-family="Bradley Hand,Bradley Hand_MSFontService,sans-serif" font-style="normal" font-variant="normal" font-weight="700" font-stretch="normal" font-size="55" text-anchor="start" direction="ltr" writing-mode="lr-tb" unicode-bidi="normal" text-decoration="none" transform="matrix(1 0 0 1 2546.72 400)">2</text><path d="M2443.5 1541C2434.15 1468.11 2493.35 1421.13 2564.5 1419.5 2635.85 1420.46 2680.71 1474.05 2685.5 1541 2680.03 1613.46 2630.75 1665.69 2564.5 1662.5 2488 1657.18 2457.48 1614.81 2443.5 1541Z" fill="#D65DB1" fill-rule="evenodd" fill-opacity="1"/><path d="M2443.5 1541C2457.17 1475.53 2500.2 1414.28 2564.5 1419.5 2623.62 1418.31 2673.82 1484.94 2685.5 1541 2684.74 1600.83 2630.05 1664.28 2564.5 1662.5 2509.99 1669.42 2456.9 1611.34 2443.5 1541Z" stroke="#000000" stroke-width="4.58333" stroke-linecap="butt" stroke-linejoin="round" stroke-miterlimit="10" stroke-opacity="1" fill="none" fill-rule="evenodd"/><text fill="#000000" fill-opacity="1" font-family="Bradley Hand,Bradley Hand_MSFontService,sans-serif" font-style="normal" font-variant="normal" font-weight="700" font-stretch="normal" font-size="55" text-anchor="start" direction="ltr" writing-mode="lr-tb" unicode-bidi="normal" text-decoration="none" transform="matrix(1 0 0 1 2547.29 1552)">5</text><path d="M533.5 1359.5C524.116 1286.91 583.554 1240.12 655 1238.5 726.648 1239.45 771.687 1292.83 776.5 1359.5 771.011 1431.66 721.526 1483.68 655 1480.5 578.18 1475.21 547.538 1433.01 533.5 1359.5Z" fill="#FF9671" fill-rule="evenodd" fill-opacity="1"/><path d="M533.5 1359.5C547.224 1294.29 590.435 1233.3 655 1238.5 714.363 1237.32 764.773 1303.67 776.5 1359.5 775.737 1419.08 720.824 1482.27 655 1480.5 600.264 1487.39 546.96 1429.55 533.5 1359.5Z" stroke="#000000" stroke-width="4.58333" stroke-linecap="butt" stroke-linejoin="round" stroke-miterlimit="10" stroke-opacity="1" fill="none" fill-rule="evenodd"/><text fill="#000000" fill-opacity="1" font-family="Bradley Hand,Bradley Hand_MSFontService,sans-serif" font-style="normal" font-variant="normal" font-weight="700" font-stretch="normal" font-size="55" text-anchor="start" direction="ltr" writing-mode="lr-tb" unicode-bidi="normal" text-decoration="none" transform="matrix(1 0 0 1 636.87 1371)">6</text><path d="M533.5 641.5C524.116 568.909 583.554 522.123 655 520.5 726.648 521.453 771.687 574.826 776.5 641.5 771.011 713.664 721.526 765.675 655 762.5 578.18 757.205 547.538 715.006 533.5 641.5Z" fill="#FF9671" fill-rule="evenodd" fill-opacity="1"/><path d="M533.5 641.5C547.224 576.295 590.435 515.3 655 520.5 714.363 519.32 764.773 585.669 776.5 641.5 775.737 701.079 720.824 764.27 655 762.5 600.264 769.395 546.96 711.549 533.5 641.5Z" stroke="#000000" stroke-width="4.58333" stroke-linecap="butt" stroke-linejoin="round" stroke-miterlimit="10" stroke-opacity="1" fill="none" fill-rule="evenodd"/><text fill="#000000" fill-opacity="1" font-family="Bradley Hand,Bradley Hand_MSFontService,sans-serif" font-style="normal" font-variant="normal" font-weight="700" font-stretch="normal" font-size="55" text-anchor="start" direction="ltr" writing-mode="lr-tb" unicode-bidi="normal" text-decoration="none" transform="matrix(1 0 0 1 640.021 653)">1</text><path d="M2443.5 965C2434.15 892.109 2493.35 845.13 2564.5 843.5 2635.85 844.457 2680.71 898.05 2685.5 965 2680.03 1037.46 2630.75 1089.69 2564.5 1086.5 2488 1081.18 2457.48 1038.81 2443.5 965Z" fill="#D65DB1" fill-rule="evenodd" fill-opacity="1"/><path d="M2443.5 965C2457.17 899.526 2500.2 838.279 2564.5 843.5 2623.62 842.315 2673.82 908.938 2685.5 965 2684.74 1024.83 2630.05 1088.28 2564.5 1086.5 2509.99 1093.42 2456.9 1035.34 2443.5 965Z" stroke="#000000" stroke-width="4.58333" stroke-linecap="butt" stroke-linejoin="round" stroke-miterlimit="10" stroke-opacity="1" fill="none" fill-rule="evenodd"/><text fill="#000000" fill-opacity="1" font-family="Bradley Hand,Bradley Hand_MSFontService,sans-serif" font-style="normal" font-variant="normal" font-weight="700" font-stretch="normal" font-size="55" text-anchor="start" direction="ltr" writing-mode="lr-tb" unicode-bidi="normal" text-decoration="none" transform="matrix(1 0 0 1 2546.72 976)">4</text><path d="M1578.5 817C1569.12 744.109 1628.55 697.13 1700 695.5 1771.65 696.457 1816.69 750.05 1821.5 817 1816.01 889.463 1766.53 941.688 1700 938.5 1623.18 933.183 1592.54 890.81 1578.5 817Z" fill="#FFC75F" fill-rule="evenodd" fill-opacity="1"/><path d="M1578.5 817C1592.22 751.525 1635.43 690.278 1700 695.5 1759.36 694.315 1809.77 760.938 1821.5 817 1820.74 876.825 1765.82 940.277 1700 938.5 1645.26 945.423 1591.96 887.339 1578.5 817Z" stroke="#000000" stroke-width="4.58333" stroke-linecap="butt" stroke-linejoin="round" stroke-miterlimit="10" stroke-opacity="1" fill="none" fill-rule="evenodd"/><text fill="#000000" fill-opacity="1" font-family="Bradley Hand,Bradley Hand_MSFontService,sans-serif" font-style="normal" font-variant="normal" font-weight="700" font-stretch="normal" font-size="55" text-anchor="start" direction="ltr" writing-mode="lr-tb" unicode-bidi="normal" text-decoration="none" transform="matrix(1 0 0 1 1682.78 828)">3</text><path d="M737.065 555.209 737.386 546.394 738.355 537.466 739.956 528.555 742.177 519.67 745.006 510.816 748.43 501.998 752.437 493.22 757.015 484.486 762.152 475.8 767.838 467.166 774.061 458.586 780.81 450.064 788.075 441.604 795.844 433.208 804.11 424.879 812.859 416.622 822.084 408.44 831.774 400.335 841.918 392.313 852.508 384.376 863.533 376.528 874.983 368.773 886.849 361.115 899.12 353.558 911.787 346.106 924.84 338.762 938.27 331.53 952.078 324.409 980.716 310.553 1010.71 297.205 1041.98 284.406 1074.44 272.189 1108.01 260.587 1142.61 249.633 1178.16 239.36 1214.59 229.804 1251.81 220.997 1289.75 212.972 1328.32 205.765 1367.45 199.408 1407.06 193.936 1447.07 189.383 1487.4 185.782 1527.97 183.168 1568.7 181.574 1609.5 181.035 1690.93 181.713 1771.7 183.688 1811.66 185.135 1851.22 186.874 1890.29 188.895 1928.81 191.185 1966.7 193.735 2003.87 196.534 2040.24 199.571 2075.74 202.836 2110.29 206.316 2143.8 210.003 2176.2 213.884 2207.41 217.95 2237.36 222.19 2265.94 226.592 2279.71 228.852 2293.11 231.148 2306.13 233.48 2318.77 235.846 2331.01 238.245 2342.85 240.676 2354.26 243.137 2365.26 245.628 2375.82 248.147 2385.94 250.693 2395.6 253.265 2404.8 255.862 2413.53 258.483 2421.77 261.128 2429.53 263.796 2436.79 266.487 2443.55 269.201 2449.79 271.94 2455.51 274.705 2461.05 277.684 2466.08 282.558 2461.3 287.497 2456.61 282.955 2457.37 283.512 2452.32 280.795 2452.45 280.863 2446.85 278.158 2446.97 278.21 2440.83 275.519 2440.93 275.561 2434.27 272.884 2434.36 272.917 2427.18 270.257 2427.26 270.284 2419.57 267.641 2419.64 267.664 2411.46 265.039 2411.52 265.058 2402.85 262.454 2402.9 262.47 2393.75 259.888 2393.8 259.902 2384.19 257.342 2384.23 257.354 2374.16 254.819 2374.2 254.829 2363.68 252.32 2363.72 252.328 2352.76 249.846 2352.8 249.854 2341.41 247.4 2341.45 247.407 2329.64 244.982 2329.67 244.988 2317.46 242.595 2317.49 242.601 2304.88 240.24 2304.91 240.245 2291.91 237.918 2291.94 237.922 2278.56 235.63 2278.59 235.634 2264.84 233.379 2264.88 233.384 2236.33 228.988 2236.37 228.994 2206.47 224.76 2206.51 224.765 2175.33 220.704 2175.37 220.708 2143 216.831 2143.03 216.835 2109.55 213.152 2109.58 213.155 2075.07 209.677 2075.1 209.68 2039.63 206.419 2039.66 206.421 2003.31 203.387 2003.34 203.389 1966.2 200.592 1966.22 200.594 1928.37 198.046 1928.39 198.047 1889.9 195.758 1889.93 195.76 1850.88 193.741 1850.9 193.742 1811.37 192.004 1811.4 192.005 1771.47 190.559 1771.51 190.56 1690.79 188.587 1690.84 188.588 1609.48 187.91 1609.55 187.91 1568.83 188.448 1568.92 188.445 1528.28 190.036 1528.37 190.031 1487.88 192.64 1487.97 192.633 1447.72 196.227 1447.81 196.218 1407.88 200.762 1407.96 200.752 1368.43 206.213 1368.51 206.201 1329.46 212.544 1329.54 212.53 1291.05 219.723 1291.13 219.707 1253.27 227.714 1253.35 227.696 1216.21 236.485 1216.29 236.464 1179.95 246 1180.03 245.977 1144.56 256.225 1144.64 256.2 1110.13 267.127 1110.21 267.099 1076.73 278.672 1076.82 278.64 1044.45 290.823 1044.54 290.788 1013.37 303.548 1013.46 303.508 983.561 316.812 983.661 316.765 955.112 330.579 955.19 330.54 941.448 337.627 941.502 337.598 928.128 344.8 928.184 344.769 915.187 352.081 915.245 352.048 902.636 359.466 902.695 359.43 890.485 366.95 890.546 366.911 878.743 374.529 878.807 374.487 867.421 382.198 867.487 382.152 856.529 389.952 856.598 389.903 846.077 397.787 846.148 397.733 836.075 405.699 836.148 405.639 826.533 413.681 826.609 413.616 817.461 421.73 817.539 421.659 808.869 429.841 808.95 429.762 800.767 438.008 800.85 437.921 793.164 446.226 793.249 446.131 786.07 454.491 786.157 454.386 779.495 462.797 779.583 462.681 773.449 471.139 773.537 471.011 767.94 479.512 768.028 479.371 762.977 487.91 763.063 487.756 758.57 496.328 758.652 496.16 754.726 504.762 754.803 504.579 751.453 513.206 751.523 513.008 748.76 521.657 748.82 521.445 746.654 530.111 746.702 529.885 745.143 538.564 745.177 538.327 744.234 547.014 744.252 546.768 743.935 555.459ZM2471.21 272.636 2478.52 302.5 2450.24 290.429Z" fill="#000000" fill-rule="nonzero" fill-opacity="1"/><path d="M0.158161-3.43386 14.0577-2.79366 28.0748-0.880248 42.0189 2.25474 55.8608 6.5668 69.5729 12.0116 83.1288 18.5454 96.5027 26.1251 109.669 34.7082 122.604 44.253 135.281 54.7181 147.675 66.0627 159.762 78.2463 171.515 91.2286 182.91 104.97 193.921 119.429 204.521 134.568 214.685 150.346 224.387 166.723 233.6 183.66 242.297 201.117 250.454 219.054 258.042 237.433 265.035 256.213 271.407 275.354 277.13 294.818 282.178 314.564 286.524 334.553 290.141 354.746 293.001 375.101 295.078 395.581 296.345 416.145 296.773 436.745 296.093 477.757 294.114 518.437 290.922 558.475 286.604 597.54 284.047 616.632 281.242 635.352 278.198 653.674 274.926 671.557 271.437 688.962 267.74 705.851 263.848 722.182 259.769 737.917 255.515 753.018 251.095 767.444 246.519 781.157 241.797 794.119 236.938 806.292 231.951 817.637 226.842 828.118 221.618 837.698 216.283 846.342 210.838 854.012 205.091 860.896 197.761 866.038 193.813 860.409 200.77 855.529 200.105 856.141 205.474 849.71 205.31 849.923 210.613 842.452 210.491 842.636 215.719 834.166 215.627 834.326 220.768 824.896 220.696 825.035 225.741 814.686 225.684 814.808 230.62 803.579 230.575 803.688 235.392 791.619 235.355 791.717 240.043 778.848 240.012 778.937 244.56 765.308 244.534 765.389 248.93 751.041 248.908 751.116 253.142 736.088 253.123 736.157 257.184 720.49 257.168 720.555 261.045 704.287 261.031 704.35 264.714 687.522 264.702 687.581 268.179 670.234 268.169 670.291 271.43 652.464 271.42 652.519 274.455 634.253 274.447 634.307 277.243 615.64 277.236 615.693 279.784 596.666 279.775 596.745 284.083 557.772 284.073 557.876 287.257 517.944 287.25 518.05 289.224 477.478 289.22 477.588 289.897 436.696 289.898 436.824 289.472 416.358 289.478 416.498 288.22 396.072 288.232 396.207 286.168 375.861 286.184 375.992 283.342 355.766 283.362 355.894 279.768 335.828 279.793 335.952 275.473 316.086 275.502 316.207 270.484 296.58 270.517 296.699 264.828 277.352 264.864 277.468 258.531 258.441 258.571 258.555 251.62 239.889 251.664 240.001 244.122 221.734 244.17 221.845 236.064 204.018 236.117 204.128 227.474 186.781 227.531 186.891 218.377 170.063 218.44 170.173 208.803 153.905 208.871 154.015 198.777 138.347 198.851 138.457 188.329 123.429 188.409 123.54 177.484 109.191 177.573 109.303 166.271 95.6746 166.369 95.7874 154.718 82.9186 154.826 83.0325 142.853 70.9634 142.972 71.0782 130.703 59.8488 130.836 59.964 118.299 49.6143 118.446 49.7293 105.667 40.2993 105.831 40.4131 92.8377 31.9427 93.02 32.0537 79.8384 24.583 80.0408 24.689 66.6981 18.2579 66.922 18.3562 53.445 13.0047 53.6912 13.0918 40.1068 8.85997 40.3752 8.93181 26.7102 5.85957 26.9993 5.9117 13.2806 4.03902 13.5874 4.06697-0.158161 3.43386ZM206.052 873.456 175.306 873.505 193.714 848.879Z" fill="#000000" fill-rule="nonzero" fill-opacity="1" transform="matrix(1.83697e-16 1 1 -1.83697e-16 740.5 727.5)"/><path d="M0.222825 3.43027-3.64315 3.6814-3.21613 3.62664-7.07455 4.36945-6.68541 4.27066-10.5287 5.48929-10.185 5.35972-14.0056 7.0383-13.7087 6.89037-17.4992 9.01306-17.2463 8.85671-20.9989 11.4076-20.7852 11.2499-24.4925 14.2132-24.3122 14.0586-27.9667 17.4184-27.8145 17.2696-31.4085 21.01-31.2796 20.8681-34.8056 24.9734-34.6471 24.7744-41.4651 34.0159-41.3021 33.7742-47.7575 44.2845-47.634 44.0658-53.6664 55.7181-53.5704 55.517-59.1194 68.1844-59.0434 67.9958-64.0485 81.5514-63.9875 81.3707-68.3884 95.6876-68.3392 95.511-72.0755 110.462-72.0363 110.286-75.0475 125.745-75.0175 125.566-77.2432 141.406-77.2223 141.221-78.602 157.314-78.5909 157.121-79.0642 173.341-79.0659 173.092-78.7148 181.21-78.7395 180.922-77.7008 189.024-77.747 188.751-76.043 196.821-76.1071 196.566-73.7599 204.589-73.8383 204.353-70.8701 212.313-70.9593 212.096-67.3923 219.976-67.4894 219.779-63.3457 227.564-63.4485 227.384-58.7503 235.058-58.8567 234.895-53.6263 242.442-53.7349 242.293-47.9944 249.698-48.1043 249.563-41.8759 256.809-41.9863 256.686-35.2921 263.758-35.4027 263.646-28.2649 270.527-28.3754 270.425-20.8162 277.1-20.9266 277.006-12.9682 283.459-13.0784 283.373-4.74299 289.588-4.90851 289.472 12.8047 301.124 12.5825 300.99 31.5377 311.5 31.3114 311.385 51.3312 320.627 51.1575 320.552 61.5112 324.658 61.3925 324.613 71.9458 328.354 71.8245 328.313 82.5552 331.673 82.431 331.637 93.3169 334.6 93.1893 334.568 104.208 337.119 104.077 337.091 115.207 339.214 115.072 339.191 126.29 340.869 126.151 340.851 137.436 342.07 137.292 342.057 148.621 342.8 148.472 342.794 159.824 343.045 171.25 343.298 182.726 344.05 194.153 345.284 205.51 346.983 216.773 349.131 227.922 351.712 238.933 354.71 249.787 358.108 260.46 361.891 270.961 366.055 291.182 375.389 310.362 386.024 328.268 397.803 336.74 404.12 344.809 410.662 352.479 417.434 359.727 424.422 366.532 431.61 372.871 438.984 378.721 446.53 384.059 454.233 388.863 462.078 393.107 470.052 396.767 478.139 399.82 486.324 402.239 494.593 403.999 502.928 405.074 511.311 405.436 519.698 404.957 536.14 403.561 552.422 401.31 568.444 398.264 584.08 394.483 599.208 390.028 613.704 384.954 627.444 379.32 640.307 373.178 652.17 366.581 662.911 359.6 672.373 355.929 676.647 352.195 680.534 348.107 684.292 342.206 687.253 339.122 681.109 344.593 678.363 343.809 678.905 347.463 675.545 347.311 675.694 350.905 671.953 350.776 672.095 354.302 667.99 354.144 668.189 360.962 658.947 360.799 659.189 367.254 648.679 367.131 648.897 373.163 637.245 373.067 637.446 378.616 624.779 378.54 624.967 383.545 611.412 383.484 611.592 387.885 597.276 387.836 597.452 391.572 582.501 391.533 582.677 394.544 567.218 394.514 567.397 396.74 551.557 396.719 551.742 398.099 535.649 398.087 535.842 398.561 519.622 398.562 519.871 398.211 511.753 398.236 512.041 397.197 503.939 397.244 504.212 395.54 496.142 395.604 496.397 393.257 488.374 393.335 488.61 390.367 480.651 390.456 480.867 386.889 472.987 386.986 473.185 382.842 465.4 382.945 465.579 378.247 457.905 378.353 458.069 373.123 450.522 373.232 450.67 367.491 443.265 367.601 443.4 361.372 436.154 361.483 436.277 354.789 429.206 354.899 429.317 347.761 422.436 347.872 422.538 340.313 415.864 340.423 415.957 332.465 409.504 332.575 409.59 324.239 403.375 324.405 403.491 306.692 391.839 306.914 391.973 287.959 381.463 288.185 381.578 268.165 372.336 268.339 372.411 257.985 368.305 258.104 368.35 247.55 364.609 247.672 364.65 236.941 361.29 237.065 361.326 226.179 358.363 226.307 358.395 215.288 355.844 215.419 355.872 204.289 353.749 204.424 353.772 193.206 352.094 193.345 352.112 182.06 350.893 182.204 350.906 170.875 350.163 171.024 350.169 159.672 349.918 148.246 349.665 136.77 348.913 125.343 347.679 113.986 345.98 102.723 343.832 91.5747 341.251 80.5628 338.253 69.7093 334.855 59.0361 331.072 48.5356 326.909 28.3148 317.574 9.13493 306.939-8.77134 295.16-17.2438 288.843-25.3126 282.301-32.9823 275.529-40.2307 268.541-47.0356 261.353-53.3745 253.979-59.2246 246.433-64.5629 238.731-69.366 230.885-73.61 222.912-77.2708 214.825-80.3234 206.639-82.7425 198.37-84.5024 190.036-85.5771 181.652-85.9399 173.265-85.4601 156.824-84.0642 140.541-81.813 124.52-78.7673 108.883-74.9869 93.7552-70.531 79.2595-65.4575 65.519-59.823 52.6564-53.6815 40.7935-47.084 30.0517-40.1039 20.5904-36.4324 16.3158-32.6981 12.4294-28.8778 8.9171-24.9738 5.79662-20.9882 3.08732-16.9231 0.81079-12.782-1.00857-8.57168-2.34357-4.30402-3.16516-0.222825-3.43027ZM350.166 695.125 319.497 692.963 339.628 669.724Z" fill="#000000" fill-rule="nonzero" fill-opacity="1" transform="matrix(1.83697e-16 1 1 -1.83697e-16 1785.5 731.5)"/><path d="M776.522 1356.06 815.601 1356.32 854.625 1357.07 893.495 1358.3 932.136 1360 970.471 1362.14 1008.42 1364.72 1045.92 1367.72 1082.88 1371.11 1119.23 1374.89 1154.9 1379.05 1189.8 1383.55 1223.87 1388.39 1257.02 1393.55 1289.18 1399.02 1320.27 1404.78 1350.23 1410.81 1378.97 1417.09 1406.41 1423.63 1432.48 1430.38 1444.99 1433.84 1457.13 1437.36 1468.88 1440.92 1480.25 1444.52 1491.21 1448.18 1501.77 1451.87 1511.92 1455.61 1521.64 1459.39 1530.93 1463.21 1539.77 1467.07 1548.16 1470.97 1556.09 1474.9 1563.56 1478.86 1570.54 1482.87 1577.04 1486.9 1583.05 1490.97 1588.55 1495.09 1593.54 1499.24 1598.02 1503.43 1601.96 1507.68 1605.35 1511.98 1608.19 1516.35 1610.44 1520.78 1612.09 1525.28 1613.09 1529.84 1613.42 1534.19 1614.04 1542.38 1613.97 1541.88 1615.83 1550.06 1615.7 1549.62 1618.76 1557.77 1618.59 1557.39 1622.8 1565.49 1622.61 1565.18 1627.94 1573.22 1627.75 1572.96 1634.15 1580.92 1633.97 1580.71 1641.4 1588.57 1641.23 1588.4 1649.65 1596.15 1649.49 1596.01 1658.88 1603.64 1658.73 1603.52 1669.02 1611 1668.89 1610.9 1680.06 1618.22 1679.93 1618.14 1691.94 1625.28 1691.82 1625.22 1704.63 1632.17 1704.52 1632.11 1718.07 1638.85 1717.97 1638.8 1732.25 1645.32 1732.15 1645.27 1747.1 1651.55 1747.01 1651.51 1762.59 1657.53 1762.51 1657.5 1778.69 1663.25 1778.6 1663.22 1795.35 1668.68 1795.26 1668.65 1812.52 1673.81 1812.44 1673.78 1830.18 1678.62 1830.1 1678.6 1848.27 1683.09 1848.19 1683.08 1866.76 1687.22 1866.69 1687.21 1885.62 1690.98 1885.54 1690.97 1904.79 1694.36 1904.71 1694.35 1924.24 1697.34 1924.16 1697.33 1943.92 1699.91 1943.85 1699.9 1963.81 1702.04 1963.73 1702.03 1983.85 1703.73 1983.77 1703.72 2004.01 1704.95 2003.93 1704.95 2024.25 1705.7 2024.17 1705.7 2044.53 1705.95 2044.45 1705.95 2085.13 1705.48 2085.05 1705.48 2125.41 1704.1 2125.34 1704.1 2165.07 1701.88 2164.99 1701.88 2203.76 1698.87 2203.71 1698.88 2222.64 1697.09 2222.6 1697.1 2241.17 1695.14 2241.13 1695.15 2259.3 1693.03 2259.26 1693.03 2277 1690.75 2276.96 1690.76 2294.22 1688.33 2294.17 1688.33 2310.91 1685.76 2310.87 1685.77 2327.05 1683.06 2327 1683.06 2342.59 1680.22 2342.54 1680.23 2357.49 1677.28 2357.43 1677.29 2371.71 1674.21 2371.65 1674.23 2385.21 1671.05 2385.14 1671.07 2397.94 1667.79 2397.86 1667.81 2409.87 1664.44 2409.78 1664.47 2420.96 1661.02 2420.86 1661.05 2431.15 1657.52 2431.04 1657.57 2440.42 1653.97 2440.28 1654.03 2448.71 1650.37 2448.54 1650.45 2455.97 1646.74 2455.28 1647.2 2461.82 1641.64 2466.27 1646.88 2459.42 1652.71 2451.53 1656.64 2442.95 1660.36 2433.44 1664.01 2423.03 1667.57 2411.77 1671.05 2399.68 1674.44 2386.81 1677.73 2373.19 1680.93 2358.85 1684.01 2343.85 1686.98 2328.21 1689.83 2311.98 1692.55 2295.2 1695.13 2277.9 1697.57 2260.12 1699.85 2241.91 1701.98 2223.3 1703.94 2204.32 1705.72 2165.49 1708.74 2125.69 1710.97 2085.25 1712.35 2044.49 1712.83 2024.04 1712.57 2003.64 1711.82 1983.32 1710.58 1963.11 1708.88 1943.07 1706.73 1923.23 1704.14 1903.63 1701.14 1884.31 1697.73 1865.3 1693.94 1846.66 1689.78 1828.41 1685.26 1810.59 1680.4 1793.25 1675.23 1776.43 1669.74 1760.16 1663.96 1744.48 1657.91 1729.44 1651.59 1715.06 1645.03 1701.4 1638.24 1688.48 1631.23 1676.36 1624.01 1665.05 1616.61 1654.61 1609.03 1645.08 1601.28 1636.49 1593.38 1628.88 1585.33 1622.29 1577.14 1616.78 1568.82 1612.39 1560.38 1609.18 1551.81 1607.21 1543.16 1606.56 1534.7 1606.26 1530.6 1606.33 1531.09 1605.42 1526.99 1605.55 1527.43 1604.05 1523.33 1604.22 1523.71 1602.14 1519.62 1602.32 1519.94 1599.67 1515.86 1599.86 1516.12 1596.64 1512.05 1596.82 1512.25 1593.06 1508.2 1593.22 1508.36 1588.91 1504.32 1589.07 1504.46 1584.22 1500.43 1584.37 1500.54 1579 1496.53 1579.12 1496.62 1573.24 1492.63 1573.36 1492.71 1566.97 1488.74 1567.07 1488.8 1560.19 1484.86 1560.28 1484.91 1552.91 1480.99 1553 1481.04 1545.15 1477.15 1545.23 1477.18 1536.91 1473.33 1536.98 1473.36 1528.21 1469.53 1528.28 1469.56 1519.06 1465.77 1519.12 1465.79 1509.46 1462.03 1509.51 1462.05 1499.42 1458.33 1499.48 1458.35 1488.97 1454.67 1489.02 1454.69 1478.1 1451.05 1478.14 1451.07 1466.82 1447.47 1466.87 1447.49 1455.15 1443.94 1455.19 1443.95 1443.1 1440.45 1443.14 1440.46 1430.67 1437.02 1430.73 1437.03 1404.72 1430.29 1404.79 1430.31 1377.41 1423.79 1377.47 1423.8 1348.79 1417.53 1348.84 1417.54 1318.94 1411.52 1319 1411.53 1287.95 1405.78 1288 1405.79 1255.89 1400.33 1255.94 1400.34 1222.83 1395.19 1222.88 1395.19 1188.86 1390.36 1188.9 1390.36 1154.04 1385.87 1154.08 1385.87 1118.46 1381.73 1118.5 1381.73 1082.19 1377.95 1082.23 1377.96 1045.31 1374.56 1045.35 1374.57 1007.9 1371.58 1007.94 1371.58 970.026 1369 970.066 1369.01 931.773 1366.86 931.814 1366.86 893.215 1365.17 893.257 1365.17 854.429 1363.94 854.471 1363.94 815.491 1363.19 815.535 1363.19 776.478 1362.94ZM2450.63 1638.77 2478.99 1626.89 2471.48 1656.7Z" fill="#000000" fill-rule="nonzero" fill-opacity="1"/></g></g></svg>