<svg width="2672" height="1292" xmlns="http://www.w3.org/2000/svg" xmlns:xlink="http://www.w3.org/1999/xlink" xml:space="preserve" overflow="hidden"><g transform="translate(-527 -362)"><g><path d="M1559.5 490C1550.12 417.109 1609.55 370.13 1681 368.5 1752.65 369.457 1797.69 423.05 1802.5 490 1797.01 562.463 1747.53 614.689 1681 611.5 1604.18 606.183 1573.54 563.81 1559.5 490Z" fill="#FFFFFF" fill-rule="evenodd" fill-opacity="1"/><path d="M1559.5 490C1573.22 424.525 1616.43 363.278 1681 368.5 1740.36 367.315 1790.77 433.938 1802.5 490 1801.74 549.825 1746.82 613.277 1681 611.5 1626.26 618.423 1572.96 560.339 1559.5 490Z" stroke="#000000" stroke-width="4.58333" stroke-linecap="butt" stroke-linejoin="round" stroke-miterlimit="10" stroke-opacity="1" fill="none" fill-rule="evenodd"/><text fill="#000000" fill-opacity="1" font-family="Bradley Hand,Bradley Hand_MSFontService,sans-serif" font-style="normal" font-variant="normal" font-weight="700" font-stretch="normal" font-size="55" text-anchor="start" direction="ltr" writing-mode="lr-tb" unicode-bidi="normal" text-decoration="none" transform="matrix(1 0 0 1 1663.51 502)">2</text><path d="M2828.5 570C2819.12 497.109 2878.55 450.13 2950 448.5 3021.65 449.457 3066.69 503.05 3071.5 570 3066.01 642.463 3016.53 694.689 2950 691.5 2873.18 686.183 2842.54 643.81 2828.5 570Z" fill="#FFFFFF" fill-rule="evenodd" fill-opacity="1"/><path d="M2828.5 570C2842.22 504.526 2885.43 443.279 2950 448.5 3009.36 447.315 3059.77 513.938 3071.5 570 3070.74 629.825 3015.82 693.277 2950 691.5 2895.26 698.424 2841.96 640.339 2828.5 570Z" stroke="#000000" stroke-width="4.58333" stroke-linecap="butt" stroke-linejoin="round" stroke-miterlimit="10" stroke-opacity="1" fill="none" fill-rule="evenodd"/><text fill="#000000" fill-opacity="1" font-family="Bradley Hand,Bradley Hand_MSFontService,sans-serif" font-style="normal" font-variant="normal" font-weight="700" font-stretch="normal" font-size="55" text-anchor="start" direction="ltr" writing-mode="lr-tb" unicode-bidi="normal" text-decoration="none" transform="matrix(1 0 0 1 2933.05 582)">5</text><path d="M2950.5 1526C2941.15 1453.11 3000.35 1406.13 3071.5 1404.5 3142.85 1405.46 3187.71 1459.05 3192.5 1526 3187.03 1598.46 3137.75 1650.69 3071.5 1647.5 2995 1642.18 2964.48 1599.81 2950.5 1526Z" fill="#FFFFFF" fill-rule="evenodd" fill-opacity="1"/><path d="M2950.5 1526C2964.17 1460.53 3007.2 1399.28 3071.5 1404.5 3130.62 1403.31 3180.82 1469.94 3192.5 1526 3191.74 1585.83 3137.05 1649.28 3071.5 1647.5 3016.99 1654.42 2963.91 1596.34 2950.5 1526Z" stroke="#000000" stroke-width="4.58333" stroke-linecap="butt" stroke-linejoin="round" stroke-miterlimit="10" stroke-opacity="1" fill="none" fill-rule="evenodd"/><text fill="#000000" fill-opacity="1" font-family="Bradley Hand,Bradley Hand_MSFontService,sans-serif" font-style="normal" font-variant="normal" font-weight="700" font-stretch="normal" font-size="55" text-anchor="start" direction="ltr" writing-mode="lr-tb" unicode-bidi="normal" text-decoration="none" transform="matrix(1 0 0 1 3053.49 1538)">6</text><path d="M533.5 641.5C524.116 568.909 583.554 522.123 655 520.5 726.648 521.453 771.687 574.826 776.5 641.5 771.011 713.664 721.526 765.675 655 762.5 578.18 757.205 547.538 715.006 533.5 641.5Z" fill="#FFFFFF" fill-rule="evenodd" fill-opacity="1"/><path d="M533.5 641.5C547.224 576.295 590.435 515.3 655 520.5 714.363 519.32 764.773 585.669 776.5 641.5 775.737 701.079 720.824 764.27 655 762.5 600.264 769.395 546.96 711.549 533.5 641.5Z" stroke="#000000" stroke-width="4.58333" stroke-linecap="butt" stroke-linejoin="round" stroke-miterlimit="10" stroke-opacity="1" fill="none" fill-rule="evenodd"/><text fill="#000000" fill-opacity="1" font-family="Bradley Hand,Bradley Hand_MSFontService,sans-serif" font-style="normal" font-variant="normal" font-weight="700" font-stretch="normal" font-size="55" text-anchor="start" direction="ltr" writing-mode="lr-tb" unicode-bidi="normal" text-decoration="none" transform="matrix(1 0 0 1 640.021 653)">1</text><path d="M2200.5 1137.5C2191.12 1064.91 2250.55 1018.12 2322 1016.5 2393.65 1017.45 2438.69 1070.83 2443.5 1137.5 2438.01 1209.66 2388.53 1261.68 2322 1258.5 2245.18 1253.21 2214.54 1211.01 2200.5 1137.5Z" fill="#FFFFFF" fill-rule="evenodd" fill-opacity="1"/><path d="M2200.5 1137.5C2214.22 1072.29 2257.43 1011.3 2322 1016.5 2381.36 1015.32 2431.77 1081.67 2443.5 1137.5 2442.74 1197.08 2387.82 1260.27 2322 1258.5 2267.26 1265.39 2213.96 1207.55 2200.5 1137.5Z" stroke="#000000" stroke-width="4.58333" stroke-linecap="butt" stroke-linejoin="round" stroke-miterlimit="10" stroke-opacity="1" fill="none" fill-rule="evenodd"/><text fill="#000000" fill-opacity="1" font-family="Bradley Hand,Bradley Hand_MSFontService,sans-serif" font-style="normal" font-variant="normal" font-weight="700" font-stretch="normal" font-size="55" text-anchor="start" direction="ltr" writing-mode="lr-tb" unicode-bidi="normal" text-decoration="none" transform="matrix(1 0 0 1 2304.12 1149)">4</text><path d="M978.5 1469C969.116 1396.11 1028.55 1349.13 1100 1347.5 1171.65 1348.46 1216.69 1402.05 1221.5 1469 1216.01 1541.46 1166.53 1593.69 1100 1590.5 1023.18 1585.18 992.538 1542.81 978.5 1469Z" fill="#FFFFFF" fill-rule="evenodd" fill-opacity="1"/><path d="M978.5 1469C992.224 1403.53 1035.43 1342.28 1100 1347.5 1159.36 1346.31 1209.77 1412.94 1221.5 1469 1220.74 1528.83 1165.82 1592.28 1100 1590.5 1045.26 1597.42 991.961 1539.34 978.5 1469Z" stroke="#000000" stroke-width="4.58333" stroke-linecap="butt" stroke-linejoin="round" stroke-miterlimit="10" stroke-opacity="1" fill="none" fill-rule="evenodd"/><text fill="#000000" fill-opacity="1" font-family="Bradley Hand,Bradley Hand_MSFontService,sans-serif" font-style="normal" font-variant="normal" font-weight="700" font-stretch="normal" font-size="55" text-anchor="start" direction="ltr" writing-mode="lr-tb" unicode-bidi="normal" text-decoration="none" transform="matrix(1 0 0 1 1082.68 1481)">3</text></g></g></svg>